<svg width="20" height="20" viewBox="0 0 20 20" fill="none" xmlns="http://www.w3.org/2000/svg">
<path d="M17.5 16.6667H19.1666V18.3333H0.833313V16.6667H2.49998V2.49999C2.49998 2.27898 2.58778 2.06701 2.74406 1.91073C2.90034 1.75445 3.1123 1.66666 3.33331 1.66666H16.6666C16.8877 1.66666 17.0996 1.75445 17.2559 1.91073C17.4122 2.06701 17.5 2.27898 17.5 2.49999V16.6667ZM15.8333 16.6667V3.33332H4.16665V16.6667H15.8333ZM6.66665 9.16666H9.16665V10.8333H6.66665V9.16666ZM6.66665 5.83332H9.16665V7.49999H6.66665V5.83332ZM6.66665 12.5H9.16665V14.1667H6.66665V12.5ZM10.8333 12.5H13.3333V14.1667H10.8333V12.5ZM10.8333 9.16666H13.3333V10.8333H10.8333V9.16666ZM10.8333 5.83332H13.3333V7.49999H10.8333V5.83332Z" fill="#82B284"/>
</svg>
