<svg width="16" height="14" viewBox="0 0 16 14" fill="none" xmlns="http://www.w3.org/2000/svg">
<path fill-rule="evenodd" clip-rule="evenodd" d="M0.25 7C0.25 6.58579 0.585786 6.25 1 6.25L15 6.25C15.4142 6.25 15.75 6.58579 15.75 7C15.75 7.41421 15.4142 7.75 15 7.75L1 7.75C0.585786 7.75 0.25 7.41421 0.25 7Z" fill="#82B284"/>
<path fill-rule="evenodd" clip-rule="evenodd" d="M0.25 7C0.25 6.80109 0.329017 6.61032 0.46967 6.46967L6.46967 0.469668C6.76256 0.176775 7.23744 0.176775 7.53033 0.469668C7.82322 0.762561 7.82322 1.23744 7.53033 1.53033L2.06066 7L7.53033 12.4697C7.82322 12.7626 7.82322 13.2374 7.53033 13.5303C7.23744 13.8232 6.76256 13.8232 6.46967 13.5303L0.46967 7.53033C0.329017 7.38968 0.25 7.19891 0.25 7Z" fill="#82B284"/>
</svg>
